<?xml version="1.0" standalone="no"?>
<!DOCTYPE svg PUBLIC "-//W3C//DTD SVG 20010904//EN"
 "http://www.w3.org/TR/2001/REC-SVG-20010904/DTD/svg10.dtd">
<svg version="1.0" xmlns="http://www.w3.org/2000/svg"
 width="960.000000pt" height="951.000000pt" viewBox="0 0 960.000000 951.000000"
 preserveAspectRatio="xMidYMid meet">

<g transform="translate(0.000000,951.000000) scale(0.100000,-0.100000)"
fill="#000000" stroke="none">
<path d="M0 4755 l0 -4755 4800 0 4800 0 0 4755 0 4755 -4800 0 -4800 0 0
-4755z m4995 3326 c72 -11 154 -25 184 -31 36 -7 609 -10 1755 -10 967 0 1707
-4 1715 -9 10 -6 12 -21 8 -50 -7 -53 -22 -71 -58 -71 -16 0 -29 -2 -29 -5 0
-24 -34 -163 -42 -172 -7 -9 -50 -13 -150 -13 -102 0 -140 -3 -142 -12 -2 -7
-23 -105 -46 -218 -23 -113 -44 -213 -46 -222 -5 -17 8 -18 164 -18 196 0 200
-2 182 -72 -7 -24 -17 -46 -24 -50 -6 -4 -359 -8 -785 -8 l-774 0 64 -67 c111
-118 217 -251 323 -412 274 -415 435 -833 518 -1351 20 -130 23 -178 23 -465
0 -283 -3 -337 -23 -465 -114 -723 -405 -1312 -912 -1844 -181 -189 -585 -499
-704 -539 -17 -5 -52 -25 -78 -43 -51 -36 -121 -74 -137 -74 -6 0 -22 17 -36
39 -28 41 -60 61 -103 61 -15 0 -36 7 -46 15 -11 8 -34 15 -50 15 -31 0 -128
-49 -143 -72 -4 -7 -10 -60 -13 -118 -3 -58 -8 -98 -12 -90 -3 8 -15 65 -27
125 -27 148 -34 155 -174 154 -56 0 -119 3 -140 7 -26 4 -44 1 -61 -9 -13 -9
-37 -15 -54 -15 -37 1 -79 -24 -92 -55 -5 -12 -18 -60 -28 -107 -11 -47 -22
-78 -24 -70 -3 8 -13 36 -23 62 -32 92 -144 175 -266 198 -157 30 -455 -10
-532 -71 l-27 -20 -22 21 c-35 33 -90 59 -165 76 -107 25 -393 6 -452 -31 -6
-3 -26 -1 -44 5 -24 9 -80 9 -235 -2 l-202 -13 -20 40 c-11 23 -20 55 -20 72
0 17 -8 41 -18 54 -10 13 -23 37 -30 52 -26 60 -84 64 -254 16 l-77 -21 -95
76 c-572 460 -967 1080 -1140 1791 -71 292 -91 462 -90 785 0 374 35 612 139
955 140 461 417 945 728 1270 l62 65 -740 2 -740 3 -3 39 c-6 67 4 86 42 86
l33 0 42 198 c24 108 54 249 67 312 13 63 26 123 28 133 3 12 -2 17 -19 17
-36 0 -45 19 -34 70 6 25 15 48 22 52 7 4 678 8 1493 8 1407 0 1485 1 1585 19
89 16 170 27 339 45 19 2 152 3 295 1 198 -3 291 -8 390 -24z m-2166 -5962
c-12 -22 0 -39 29 -39 21 0 13 -17 -23 -44 -19 -15 -35 -31 -35 -35 0 -4 25
-13 55 -20 51 -11 55 -15 49 -34 -9 -28 -18 -34 -71 -42 -62 -9 -173 -49 -220
-78 -58 -37 -83 -72 -83 -119 0 -57 46 -96 175 -148 168 -68 219 -124 218
-244 -2 -205 -181 -339 -486 -362 -48 -4 -87 -4 -87 -1 0 3 16 21 36 40 l37
34 -37 13 c-29 9 -35 15 -26 25 8 10 8 19 1 34 -15 27 -14 31 9 31 41 0 187
34 228 53 48 22 92 69 92 98 0 39 -67 94 -197 162 -144 76 -161 88 -197 142
-34 50 -36 147 -5 232 48 130 241 261 453 308 92 20 99 19 85 -6z m1096 -204
c196 -42 251 -243 113 -417 -28 -36 -30 -42 -15 -52 112 -76 128 -98 129 -176
0 -61 -23 -109 -78 -164 -81 -80 -205 -128 -364 -142 l-80 -7 0 42 c0 40 -1
41 -35 41 l-35 0 0 330 c0 181 -3 329 -7 329 -20 -3 -23 3 -12 22 9 17 7 25
-12 45 -21 23 -22 25 -4 44 11 13 16 29 13 50 -3 17 0 34 5 37 18 11 171 31
242 32 39 0 101 -6 140 -14z m796 -20 c59 -20 121 -73 144 -121 24 -52 22
-155 -5 -223 -24 -61 -59 -114 -123 -186 l-44 -50 32 -75 c18 -41 49 -108 69
-149 21 -40 35 -76 32 -79 -4 -3 -22 2 -42 11 -40 20 -54 15 -54 -16 0 -17 -6
-22 -29 -24 -26 -2 -35 8 -111 125 -46 70 -84 129 -86 130 -1 2 -23 -5 -48
-17 l-46 -20 0 -106 c0 -116 -7 -127 -45 -67 -11 17 -23 31 -26 32 -3 0 -14
-20 -25 -45 -14 -34 -22 -43 -33 -36 -12 8 -15 72 -18 367 -3 324 -5 358 -21
370 -16 12 -14 15 16 46 17 19 32 37 32 40 0 4 -16 12 -35 18 -23 8 -35 18
-35 30 0 15 17 22 93 39 135 30 133 30 252 26 68 -2 128 -9 156 -20z m539 -30
c19 -24 38 -44 41 -45 3 0 14 18 24 40 20 44 22 45 49 25 14 -11 24 -12 38 -4
11 6 24 7 28 2 4 -4 33 -147 64 -318 57 -311 92 -500 102 -543 4 -20 2 -23
-15 -17 -11 3 -30 1 -42 -5 -17 -10 -25 -8 -44 10 -23 22 -25 22 -42 5 -17
-18 -18 -17 -27 16 -5 19 -16 61 -25 94 l-17 60 -89 -4 c-48 -1 -108 -6 -133
-10 l-46 -6 -21 -86 c-29 -114 -31 -117 -65 -84 l-29 27 -27 -21 c-23 -18 -30
-19 -41 -8 -11 11 2 86 77 445 49 238 90 435 90 438 0 2 15 2 33 -1 25 -5 37
-2 51 14 11 12 22 21 25 21 3 0 22 -20 41 -45z m-1850 9 c6 -14 10 -27 10 -28
0 -2 -18 -15 -40 -30 -45 -30 -45 -40 1 -50 22 -4 30 -11 27 -23 -3 -15 -20
-19 -103 -27 -55 -5 -103 -14 -107 -20 -4 -6 -8 -55 -8 -108 l0 -98 105 0 105
0 -10 -26 c-14 -36 -12 -54 5 -54 9 0 15 -9 15 -24 0 -23 -4 -25 -77 -31 -119
-9 -138 -16 -137 -48 0 -15 1 -66 2 -113 l2 -85 103 2 102 2 3 -42 c2 -29 8
-41 19 -41 12 0 14 -6 8 -27 -4 -16 -8 -30 -10 -31 -4 -4 -244 -21 -302 -22
-31 0 -33 2 -33 35 0 34 -1 35 -40 35 l-39 0 -3 348 -3 347 23 26 c28 32 28
34 -8 49 -28 12 -30 16 -24 44 3 17 8 32 9 34 3 3 141 14 378 31 10 0 21 -9
27 -25z m3519 20 c39 -8 40 -30 1 -39 -37 -8 -38 -18 -2 -44 23 -17 25 -22 12
-31 -8 -5 -15 -20 -15 -32 0 -20 -6 -24 -55 -29 -147 -16 -198 -69 -220 -233
-20 -140 21 -283 90 -319 26 -13 51 -17 97 -15 34 2 64 6 67 9 3 2 6 58 7 124
2 156 17 188 53 120 11 -19 23 -35 27 -35 4 0 17 16 29 35 41 67 45 51 45
-201 l0 -237 -23 -8 c-20 -7 -26 -4 -43 26 -24 41 -30 42 -54 15 -22 -24 -35
-26 -35 -4 0 14 -6 15 -42 8 -76 -16 -199 -10 -242 10 -112 55 -180 259 -156
467 25 214 85 327 198 375 86 36 192 51 261 38z m-1161 -25 c11 -17 19 -20 51
-14 l38 6 103 -183 c164 -293 190 -336 207 -342 14 -6 15 19 12 260 -4 251 -3
267 14 278 16 9 22 7 35 -13 46 -67 45 -67 76 -22 57 81 56 85 56 -424 0 -256
-3 -465 -7 -465 -4 0 -19 12 -34 26 l-27 26 -38 -26 c-32 -21 -41 -24 -56 -13
-10 6 -80 109 -157 227 -128 199 -162 242 -175 229 -3 -3 -8 -107 -12 -232 -6
-207 -9 -227 -25 -227 -9 0 -31 17 -47 37 l-30 38 -18 -38 c-35 -73 -40 -50
-47 196 -4 127 -7 331 -7 453 0 219 0 221 23 232 34 16 51 14 65 -9z"/>
<path d="M906 7985 c-4 -14 -4 -30 -1 -35 9 -15 7684 -13 7701 1 8 6 14 22 14
35 l0 24 -3854 0 -3854 0 -6 -25z"/>
<path d="M2395 7898 c-12 -38 -43 -203 -39 -210 3 -4 49 -8 103 -8 l98 0 21
103 c12 56 22 108 22 115 0 9 -27 12 -100 12 -72 0 -102 -4 -105 -12z"/>
<path d="M956 7888 c-6 -21 -76 -363 -76 -370 0 -4 140 -7 312 -8 171 0 314
-2 316 -5 2 -2 -1 -27 -8 -54 l-12 -51 -135 0 -136 0 6 35 6 35 -182 -2 -181
-3 -17 -85 c-10 -47 -18 -93 -18 -102 -1 -17 29 -18 493 -18 l494 0 5 23 c8
28 77 357 77 363 0 2 -142 4 -315 4 -192 0 -315 4 -315 10 0 5 5 32 11 60 l11
50 135 0 135 0 -4 -37 -3 -38 177 -3 176 -2 21 91 c12 50 21 97 21 105 0 12
-73 14 -495 14 -388 0 -496 -3 -499 -12z"/>
<path d="M1995 7878 c-18 -79 -125 -595 -125 -605 0 -10 42 -13 174 -13 96 0
177 3 180 8 2 4 15 57 27 117 12 61 26 114 30 119 7 8 259 9 267 1 3 -3 -26
-147 -45 -222 l-5 -23 181 0 c179 0 181 0 186 23 7 33 62 291 96 452 16 77 29
146 29 153 0 10 -39 12 -177 10 l-178 -3 -20 -95 c-12 -52 -24 -107 -28 -122
l-7 -28 -135 0 c-84 0 -135 4 -135 10 0 8 25 128 45 218 l5 22 -180 0 c-178 0
-180 0 -185 -22z"/>
<path d="M3035 7878 c-9 -40 -113 -541 -120 -580 l-7 -38 175 0 c97 0 178 3
181 8 2 4 32 137 65 296 34 158 64 299 67 312 l6 24 -181 0 c-179 0 -181 0
-186 -22z"/>
<path d="M3451 7843 c-6 -31 -11 -62 -11 -70 0 -10 30 -13 140 -13 129 0 140
-1 140 -18 0 -10 -20 -115 -45 -233 -25 -118 -46 -221 -48 -229 -2 -13 24 -15
176 -18 137 -2 178 0 181 10 3 7 27 119 54 248 l49 235 146 3 146 3 10 37 c5
20 12 52 16 70 l7 32 -475 0 -474 0 -12 -57z"/>
<path d="M4436 7828 c-51 -239 -116 -549 -116 -558 0 -6 65 -10 179 -10 l178
0 24 115 23 115 281 0 c204 1 284 4 296 13 77 60 74 53 111 230 l35 167 -497
0 -498 0 -16 -72z m616 -63 c5 -6 -16 -122 -24 -130 -2 -2 -62 -5 -133 -6 -89
-1 -130 2 -133 10 -4 11 16 108 25 124 5 8 257 10 265 2z"/>
<path d="M5500 7896 c0 -2 -14 -68 -30 -147 -71 -333 -100 -474 -100 -481 0
-5 224 -7 497 -6 l497 3 27 130 c15 72 45 214 67 318 l40 187 -499 0 c-275 0
-499 -2 -499 -4z m602 -131 c3 -3 2 -23 -3 -43 -5 -20 -20 -93 -34 -162 -15
-69 -29 -133 -31 -142 -5 -16 -20 -18 -140 -18 -82 0 -134 4 -134 10 0 18 69
341 75 350 6 10 257 14 267 5z"/>
<path d="M6530 7843 c-7 -32 -24 -117 -40 -190 -15 -73 -25 -135 -22 -138 3
-3 142 -5 310 -5 167 1 307 -1 309 -4 3 -3 1 -27 -3 -53 l-9 -48 -139 -3 -138
-3 6 36 7 35 -180 0 -179 0 -16 -72 c-9 -40 -19 -88 -22 -106 l-7 -32 499 2
498 3 38 175 c20 96 37 183 38 193 0 16 -21 17 -315 17 l-314 0 6 33 c3 17 9
43 13 57 l6 25 135 0 134 0 -3 -38 -4 -37 179 2 178 3 16 75 c9 41 19 88 23
103 l6 27 -499 0 -500 0 -11 -57z"/>
<path d="M7571 7843 c-6 -31 -11 -62 -11 -70 0 -10 30 -13 140 -13 139 0 140
0 140 -22 -1 -13 -23 -124 -49 -246 -33 -156 -45 -225 -37 -228 7 -3 88 -3
181 -2 l168 3 52 245 51 245 147 3 147 3 6 27 c3 15 10 43 15 62 5 19 9 38 9
43 0 4 -213 7 -474 7 l-473 0 -12 -57z"/>
<path d="M1317 7723 c-4 -3 -7 -15 -7 -25 0 -17 8 -18 103 -16 97 3 102 4 105
26 3 22 1 22 -96 22 -54 0 -102 -3 -105 -7z"/>
<path d="M6900 7705 l0 -26 103 3 c97 3 102 4 105 26 3 22 2 22 -102 22 l-106
0 0 -25z"/>
<path d="M7537 7706 c-3 -8 -24 -106 -47 -218 -22 -112 -43 -211 -46 -220 -5
-17 6 -18 130 -18 120 0 135 2 140 18 2 9 23 107 46 217 23 110 43 208 46 218
5 16 -6 17 -129 17 -108 0 -136 -3 -140 -14z"/>
<path d="M1267 7473 c-4 -3 -7 -15 -7 -25 0 -17 8 -18 103 -16 97 3 102 4 105
26 3 22 1 22 -96 22 -54 0 -102 -3 -105 -7z"/>
<path d="M2305 7468 c-4 -12 -45 -207 -45 -215 0 -1 17 -3 38 -3 31 0 49 10
114 67 76 65 107 114 94 148 -7 20 -194 22 -201 3z"/>
<path d="M6851 7461 c-6 -10 -7 -21 -4 -25 3 -3 50 -6 104 -6 87 0 97 2 102
19 3 11 2 22 -1 25 -3 3 -47 6 -98 6 -81 0 -95 -2 -103 -19z"/>
<path d="M4170 7403 c-58 -8 -110 -20 -116 -26 -11 -11 -34 -92 -34 -117 0 -7
42 -10 132 -8 l132 3 17 77 c9 43 14 80 11 83 -7 6 -15 6 -142 -12z"/>
<path d="M4746 7409 c-9 -26 -26 -120 -26 -139 0 -19 9 -20 310 -20 l310 0 0
24 c0 14 -4 27 -9 30 -16 10 -285 75 -371 90 -154 26 -209 30 -214 15z"/>
<path d="M794 7205 c-4 -8 -4 -22 0 -30 5 -13 436 -15 3828 -13 l3823 3 3 28
3 27 -3826 0 c-3391 0 -3826 -2 -3831 -15z"/>
<path d="M3260 7087 c-284 -167 -583 -431 -777 -689 -381 -505 -570 -1105
-550 -1742 9 -292 49 -511 144 -799 120 -362 346 -737 602 -1000 87 -90 248
-231 337 -297 l62 -45 4 -127 c5 -134 11 -153 61 -180 37 -20 139 -18 185 4
23 11 42 23 42 26 0 4 4 13 9 21 7 11 17 6 45 -23 68 -67 73 -69 219 -67 118
2 145 -1 249 -28 249 -64 337 -75 638 -75 221 -1 297 3 385 17 89 15 294 62
401 93 12 3 38 1 58 -4 42 -12 92 -1 128 28 23 17 28 18 64 5 21 -8 64 -14 94
-15 31 0 81 -7 112 -15 40 -10 65 -12 89 -5 19 6 59 10 91 10 69 0 114 31 124
86 8 45 21 43 40 -5 21 -52 61 -71 152 -71 56 0 75 4 97 21 26 21 27 24 22
108 -2 47 -18 160 -35 251 -18 91 -32 175 -32 187 0 13 22 45 56 80 409 423
657 935 745 1538 40 275 28 632 -30 918 -118 571 -414 1094 -831 1465 -148
133 -357 284 -467 341 l-42 21 -1218 0 -1218 -1 -55 -32z m1553 -227 c273 -15
470 -50 687 -122 218 -71 344 -149 502 -309 86 -88 198 -226 198 -246 0 -5
-75 -20 -167 -32 -269 -37 -707 -135 -830 -186 -36 -15 -44 -44 -18 -65 13
-11 40 -6 153 24 264 72 363 96 495 120 167 31 393 58 417 51 53 -17 215 -453
285 -765 128 -578 109 -1001 -62 -1345 -24 -49 -49 -94 -54 -99 -5 -6 -77 -11
-161 -12 -324 -3 -538 -89 -612 -244 l-21 -45 -96 -3 -97 -3 -30 53 c-38 69
-99 124 -176 158 -105 48 -161 55 -401 54 -253 -2 -320 -14 -453 -84 -43 -22
-85 -40 -93 -40 -8 0 -54 16 -101 35 -276 111 -693 198 -948 198 -160 0 -250
-21 -374 -84 -43 -22 -85 -39 -92 -37 -20 5 -154 157 -206 234 -148 222 -223
443 -249 735 -29 318 49 720 192 999 78 153 170 278 298 409 163 165 227 217
354 285 385 206 877 343 1312 365 83 4 155 9 160 9 6 1 90 -3 188 -8z m1615
-3030 c12 0 22 -4 22 -8 0 -5 -62 -38 -137 -75 -76 -36 -249 -120 -386 -186
-136 -67 -252 -121 -257 -121 -6 0 -10 11 -10 23 0 25 6 28 345 213 39 21 122
67 185 101 108 60 118 63 165 58 28 -2 60 -5 73 -5z m-3070 -41 c125 -13 332
-60 481 -109 166 -54 345 -133 349 -154 5 -23 -62 -51 -158 -66 -76 -12 -141
-42 -172 -79 -10 -12 -25 -21 -34 -21 -23 0 -360 106 -499 157 -127 47 -405
179 -405 192 0 22 154 74 250 84 69 7 92 7 188 -4z m1889 -50 c28 -18 32 -24
21 -33 -14 -13 -105 -72 -368 -238 -91 -58 -192 -122 -224 -143 -56 -35 -59
-36 -52 -14 4 13 10 45 13 70 6 53 -33 23 328 251 110 69 211 127 224 127 13
1 39 -9 58 -20z m1443 -29 c0 -12 -899 -462 -913 -457 -29 9 -8 27 84 71 120
57 727 348 784 375 49 24 45 23 45 11z m-1315 -139 c3 -5 -39 -40 -92 -77 -54
-37 -118 -82 -143 -99 -312 -217 -463 -316 -477 -313 -13 2 3 18 52 52 64 44
648 443 652 445 1 1 4 -3 8 -8z m-1111 -127 c17 -16 20 -41 10 -68 -3 -9 -36
-37 -73 -63 -92 -66 -257 -234 -316 -323 -59 -88 -65 -93 -85 -75 -8 7 -27 18
-42 24 l-27 10 32 58 c86 161 280 395 362 437 40 21 119 21 139 0z m322 -39
c8 -11 14 -26 14 -34 -1 -30 -70 -111 -169 -196 -54 -47 -130 -124 -169 -169
l-71 -83 -151 -8 c-83 -4 -153 -5 -155 -3 -7 6 58 98 115 163 111 125 345 310
435 343 46 17 135 9 151 -13z m-566 12 c0 -2 -23 -28 -50 -58 -62 -66 -174
-213 -223 -294 -55 -89 -47 -37 13 82 61 122 143 232 190 255 31 15 70 23 70
15z m1608 -55 c-2 -10 -31 -24 -77 -38 -126 -38 -121 -38 -121 -6 0 50 17 61
100 64 88 4 102 1 98 -20z m-1130 -288 c69 -19 70 -21 51 -104 -16 -73 -16
-73 -46 -51 -23 17 -45 21 -124 22 -53 1 -101 -1 -107 -5 -31 -19 -5 19 59 88
47 50 77 75 88 72 9 -3 44 -12 79 -22z m672 -44 c4 -14 10 -44 13 -66 7 -41 6
-42 -35 -63 l-41 -20 -29 24 c-26 22 -39 25 -112 25 -85 0 -116 -12 -152 -59
-10 -13 -15 -11 -35 13 -27 31 -82 49 -151 50 -46 1 -46 1 -41 31 15 79 0 74
205 69 137 -4 202 -2 258 9 98 19 112 18 120 -13z m-1753 -95 c10 -22 8 -27
-8 -35 -25 -14 -24 -30 1 -30 11 0 20 -7 20 -15 0 -10 -10 -15 -34 -15 -18 0
-47 -3 -64 -6 l-30 -6 -4 -257 c-2 -141 -8 -262 -12 -270 -7 -11 -15 -7 -37
20 l-27 34 -13 -28 c-7 -15 -16 -27 -20 -27 -5 0 -10 118 -11 263 l-3 262 -57
-3 c-37 -2 -58 1 -58 8 0 6 7 13 15 16 19 8 19 24 -1 38 -13 10 -13 16 -3 38
13 30 27 32 234 36 98 2 100 1 112 -23z m320 -102 c4 -10 -2 -23 -18 -36 -23
-18 -23 -19 -4 -33 27 -20 9 -32 -55 -36 l-55 -3 -3 -69 -3 -68 61 4 c56 4 60
3 60 -17 0 -11 5 -26 11 -32 20 -20 1 -30 -62 -36 -33 -3 -63 -8 -66 -11 -3
-3 -2 -35 2 -71 l7 -66 61 3 c56 3 62 1 63 -17 0 -11 4 -28 8 -38 5 -10 5 -22
0 -26 -5 -5 -53 -11 -106 -14 l-98 -5 0 24 c0 20 -4 25 -22 22 l-23 -3 -3 219
c-2 169 1 222 10 228 10 6 9 11 -4 22 -20 15 -24 41 -7 51 9 6 114 17 217 24
13 0 25 -6 29 -16z m634 -22 c5 8 9 17 9 21 0 3 16 6 35 5 40 -1 30 30 90
-297 19 -107 37 -205 40 -216 4 -17 -1 -23 -21 -28 -14 -4 -32 -2 -39 4 -7 6
-19 9 -25 8 -8 -2 -18 17 -26 45 -7 27 -14 51 -17 53 -2 3 -40 1 -83 -3 l-79
-8 -14 -57 c-12 -55 -33 -75 -44 -45 -3 10 -9 10 -26 0 -11 -7 -23 -13 -26
-13 -11 0 -3 61 25 190 16 74 39 186 52 248 19 99 25 112 43 112 11 0 27 5 35
10 11 8 21 3 38 -17 19 -21 26 -24 33 -12z m310 11 c20 3 34 -16 109 -151 48
-85 92 -157 99 -159 10 -3 12 29 10 152 -3 168 5 200 36 152 21 -32 29 -33 43
-1 27 60 32 22 32 -260 0 -157 -4 -285 -9 -285 -5 0 -14 7 -21 15 -11 13 -15
13 -33 0 -12 -8 -25 -15 -29 -15 -5 0 -49 63 -99 140 -50 77 -94 140 -99 140
-10 0 -20 -103 -20 -201 0 -44 -3 -79 -7 -79 -4 0 -17 10 -30 22 -24 23 -33
20 -46 -17 -13 -32 -16 30 -17 275 -1 253 0 275 17 288 15 11 20 10 30 -3 6
-9 21 -15 34 -13z m684 19 c3 -6 -2 -14 -12 -19 -13 -8 -15 -13 -5 -24 21 -26
3 -55 -39 -62 -91 -15 -121 -55 -127 -172 -7 -126 41 -195 125 -179 l32 6 3
81 c3 80 19 113 33 69 8 -28 17 -26 36 5 15 24 16 19 22 -117 5 -104 4 -146
-5 -157 -10 -12 -15 -11 -29 7 -18 22 -39 28 -39 10 0 -6 -5 -7 -12 -2 -7 4
-47 6 -89 4 -73 -3 -77 -2 -112 29 -47 41 -77 121 -77 204 0 121 31 226 79
270 44 40 199 73 216 47z m420 -1 c3 -6 -1 -13 -9 -16 -17 -7 -22 -34 -7 -34
5 0 4 -11 -2 -24 -9 -18 -23 -26 -54 -31 -74 -11 -102 -47 -118 -150 -8 -57
11 -146 38 -173 25 -24 84 -38 105 -24 7 5 15 42 19 90 6 85 14 98 34 60 l12
-22 15 22 c8 12 18 22 23 22 5 0 9 -65 9 -144 0 -115 -3 -145 -14 -149 -8 -3
-21 4 -29 16 -12 18 -17 19 -29 9 -8 -6 -18 -9 -22 -5 -4 4 -39 6 -79 5 -58
-2 -78 1 -104 17 -67 42 -102 162 -84 293 19 137 63 205 151 233 53 16 136 19
145 5z m301 -15 c20 -30 31 -32 39 -6 4 14 15 19 39 18 l34 -1 16 -90 c10 -50
32 -171 50 -268 l33 -177 -25 -6 c-13 -3 -30 -1 -37 5 -7 6 -19 8 -27 5 -11
-4 -18 8 -27 50 l-13 56 -71 -6 c-40 -4 -77 -8 -84 -10 -6 -2 -17 -29 -24 -59
-12 -55 -31 -72 -43 -40 -6 15 -8 15 -26 -1 -13 -11 -24 -15 -29 -9 -5 5 7 88
30 194 21 102 46 222 55 268 15 74 19 82 40 82 13 0 26 5 29 10 10 16 24 11
41 -15z m-1953 -22 c3 -16 0 -31 -6 -35 -8 -5 -6 -13 6 -26 17 -19 16 -20 -43
-26 l-60 -7 0 -214 c0 -209 -7 -259 -30 -201 -10 28 -30 35 -30 12 0 -10 -9
-14 -27 -12 l-28 3 -3 205 -2 205 -49 -5 c-39 -3 -49 -1 -55 13 -4 11 0 23 11
31 17 13 16 15 -7 34 -14 11 -23 20 -20 21 3 1 75 7 160 14 85 7 160 13 166
13 7 1 14 -10 17 -25z"/>
<path d="M5136 6350 c-116 -31 -283 -51 -473 -57 -133 -4 -183 -9 -183 -18 0
-20 164 -25 328 -10 161 15 231 26 354 55 83 20 98 26 98 41 0 14 -46 10 -124
-11z"/>
<path d="M5330 6264 c-340 -70 -474 -85 -795 -91 -154 -2 -332 0 -395 5 -113
9 -140 8 -140 -8 0 -15 30 -19 237 -31 313 -17 653 4 978 61 194 35 385 82
385 97 0 19 -32 16 -270 -33z"/>
<path d="M5815 6240 c-16 -4 -93 -24 -170 -44 -192 -49 -407 -92 -599 -119
-144 -20 -198 -22 -521 -21 -295 1 -387 5 -508 21 -81 10 -153 16 -160 11 -25
-15 11 -28 118 -42 415 -55 831 -46 1260 25 227 37 596 127 620 150 15 15 -8
27 -40 19z"/>
<path d="M3177 6154 c-4 -4 -7 -36 -7 -70 0 -81 -29 -158 -80 -217 -42 -48
-49 -67 -25 -67 23 0 83 69 112 128 22 45 26 69 27 139 1 80 -7 106 -27 87z"/>
<path d="M3421 6016 c-15 -18 -4 -45 23 -51 11 -2 102 -9 201 -15 290 -18 499
-44 843 -107 191 -35 203 -36 220 -20 29 30 4 50 -84 69 -435 94 -1166 169
-1203 124z"/>
<path d="M5641 5869 c-67 -13 -143 -40 -172 -60 -39 -27 -55 -73 -38 -105 27
-52 154 -105 279 -118 93 -10 232 8 283 36 102 57 116 175 25 221 -65 33 -271
47 -377 26z m296 -40 c70 -14 107 -49 99 -92 -15 -81 -119 -122 -285 -114
-160 8 -272 51 -279 109 -4 34 16 52 85 78 105 39 242 46 380 19z"/>
<path d="M5750 5752 c-41 -33 -2 -84 50 -67 34 11 44 41 20 65 -25 25 -41 25
-70 2z"/>
<path d="M4027 5796 c-99 -41 -167 -106 -167 -161 0 -66 119 -135 292 -169
123 -25 322 -16 405 19 42 18 66 64 57 112 -29 155 -393 278 -587 199z m299
-31 c88 -25 156 -61 199 -105 32 -32 38 -46 39 -82 1 -40 -1 -44 -37 -62 -92
-45 -298 -41 -463 9 -109 33 -148 60 -152 105 -2 28 3 42 29 68 84 86 229 111
385 67z"/>
<path d="M4228 5659 c-25 -14 -23 -56 2 -69 27 -14 57 -4 71 23 10 17 8 24
-11 39 -25 20 -37 22 -62 7z"/>
<path d="M5060 5778 c1 -7 39 -37 85 -66 154 -97 182 -182 108 -324 -43 -84
-53 -171 -29 -271 18 -75 37 -117 96 -208 46 -72 52 -126 21 -187 -32 -63
-170 -130 -314 -152 -75 -12 -117 -7 -188 21 -26 10 -84 23 -130 29 -96 13
-136 31 -149 66 -16 40 -12 71 16 141 19 48 23 67 15 73 -7 4 -42 -1 -79 -12
-84 -23 -134 -23 -154 0 -41 47 -23 82 55 107 103 34 97 71 -6 41 -63 -18
-117 -63 -117 -98 0 -34 36 -87 68 -99 18 -8 49 -8 95 -2 38 5 70 6 72 2 3 -3
0 -21 -5 -40 -13 -46 -13 -103 2 -134 19 -42 68 -65 161 -75 46 -6 115 -22
153 -36 62 -23 79 -26 159 -21 192 11 374 110 405 221 16 57 7 92 -41 166 -62
96 -80 137 -95 221 -19 96 -9 161 37 248 75 145 41 237 -126 347 -81 53 -115
66 -115 42z"/>
<path d="M3300 5619 c-83 -18 -232 -72 -257 -92 -7 -5 -13 -13 -13 -18 0 -16
36 -9 108 20 124 51 234 74 360 74 107 0 141 9 111 28 -25 16 -219 8 -309 -12z"/>
<path d="M5975 5548 c-129 -35 -295 -43 -403 -19 -47 10 -66 11 -75 2 -20 -20
8 -33 120 -52 100 -17 115 -17 213 -3 179 26 303 61 308 87 5 24 -31 21 -163
-15z"/>
<path d="M3675 5530 c-3 -5 -3 -15 1 -21 14 -24 203 -91 338 -120 185 -41 457
-45 464 -8 3 15 -17 17 -175 22 -220 6 -309 25 -537 111 -77 29 -82 30 -91 16z"/>
<path d="M3330 5480 c-125 -28 -130 -30 -130 -46 0 -12 8 -14 43 -9 110 17
251 51 255 63 5 17 -74 14 -168 -8z"/>
<path d="M5885 5425 c-27 -8 -89 -15 -137 -15 -84 0 -119 -12 -81 -28 38 -15
216 -6 268 14 85 33 46 56 -50 29z"/>
<path d="M3937 5323 c-14 -13 -6 -21 43 -42 105 -45 325 -53 325 -12 0 12 -19
14 -105 12 -90 -2 -115 2 -179 24 -86 29 -76 27 -84 18z"/>
<path d="M4897 5314 c-29 -9 -47 -20 -44 -27 2 -7 13 -10 23 -8 10 2 53 4 94
4 41 0 84 -2 94 -4 10 -2 21 1 23 8 3 7 -17 18 -48 27 -63 19 -80 19 -142 0z"/>
<path d="M4940 5246 c-38 -14 -49 -43 -15 -38 72 12 159 13 186 2 42 -18 61 1
25 25 -35 23 -149 29 -196 11z"/>
<path d="M4254 5155 c-265 -62 -441 -186 -534 -378 -45 -93 -47 -102 -25 -111
12 -4 24 13 49 68 96 211 284 344 561 396 86 16 95 20 95 36 0 19 -25 17 -146
-11z"/>
<path d="M2768 5105 c-68 -51 -118 -166 -84 -194 21 -18 36 -5 36 30 0 54 48
127 103 155 15 8 27 21 27 29 0 25 -35 17 -82 -20z"/>
<path d="M5799 5119 c-18 -11 -5 -21 54 -43 60 -23 102 -58 128 -107 19 -39
49 -53 49 -24 0 74 -178 207 -231 174z"/>
<path d="M5542 5104 c2 -11 23 -22 58 -31 190 -48 345 -181 396 -337 18 -57
37 -82 53 -72 15 10 5 46 -35 134 -62 136 -202 247 -378 301 -82 25 -98 26
-94 5z"/>
<path d="M4039 4997 c-89 -45 -164 -147 -110 -147 11 0 22 9 26 19 9 29 81 90
131 111 25 11 44 26 44 35 0 23 -21 19 -91 -18z"/>
<path d="M5586 4941 c-4 -6 1 -14 11 -17 87 -31 126 -62 146 -116 7 -21 37
-24 37 -5 0 22 -57 105 -84 122 -32 21 -101 31 -110 16z"/>
<path d="M2842 4863 c-29 -57 -33 -90 -15 -139 18 -48 52 -71 44 -29 -5 26 -5
134 0 159 5 25 -17 32 -29 9z"/>
<path d="M5480 4648 c1 -7 39 -41 85 -75 46 -35 102 -86 124 -115 37 -49 121
-207 121 -227 0 -5 7 -14 16 -22 28 -23 34 9 10 65 -45 108 -99 194 -158 255
-96 98 -199 159 -198 119z"/>
<path d="M3412 4595 c-56 -47 -98 -172 -56 -163 10 2 22 21 30 48 8 27 28 59
49 80 57 56 37 86 -23 35z"/>
<path d="M4209 4556 c-171 -100 -230 -244 -179 -434 22 -82 42 -114 61 -95 6
6 3 32 -10 74 -31 102 -35 149 -17 220 22 85 70 140 176 205 46 28 86 56 88
62 8 25 -46 10 -119 -32z"/>
<path d="M4885 4470 c-242 -28 -410 -124 -494 -282 -36 -68 -37 -98 -1 -98 14
0 27 15 45 49 40 81 127 166 209 206 104 51 174 66 327 72 303 12 453 -64 519
-263 24 -72 43 -96 67 -87 12 5 14 16 10 55 -19 156 -153 290 -332 333 -76 18
-259 26 -350 15z"/>
<path d="M4790 4203 c-64 -17 -94 -38 -67 -49 10 -3 30 -1 45 5 76 31 164 30
305 -5 20 -5 27 -3 27 9 0 27 -108 57 -200 56 -30 -1 -80 -7 -110 -16z"/>
<path d="M4310 2643 c-6 -32 -16 -75 -21 -97 -6 -21 -8 -40 -5 -43 7 -7 116 7
116 14 0 3 -9 45 -21 94 -17 72 -24 89 -39 89 -15 0 -21 -12 -30 -57z"/>
<path d="M6057 2633 c-31 -142 -31 -133 -5 -133 13 0 40 3 61 6 28 5 36 11 33
23 -2 9 -12 51 -21 94 -13 62 -20 77 -35 77 -15 0 -21 -14 -33 -67z"/>
<path d="M3740 1741 c-24 -7 -25 -9 -28 -116 -1 -59 1 -112 6 -117 15 -15 136
30 179 67 49 42 63 84 38 121 -30 46 -119 66 -195 45z m90 -101 c0 -5 -4 -10
-10 -10 -5 0 -10 5 -10 10 0 6 5 10 10 10 6 0 10 -4 10 -10z"/>
<path d="M3742 1359 l-33 -10 3 -107 3 -107 60 2 c157 6 259 135 163 206 -31
23 -144 32 -196 16z"/>
<path d="M4449 1714 c-13 -4 -17 -30 -22 -155 -4 -83 -4 -155 -1 -160 7 -12
90 31 153 81 60 48 111 121 111 161 0 15 -9 37 -19 50 -17 22 -28 24 -113 26
-51 1 -100 -1 -109 -3z m131 -101 c0 -10 -42 -53 -52 -53 -4 0 -8 14 -8 30 0
27 3 30 30 30 17 0 30 -3 30 -7z"/>
<path d="M5239 1668 c-9 -30 -75 -329 -73 -331 4 -4 188 14 193 19 2 2 -11 74
-29 159 l-34 155 -28 0 c-15 0 -28 -1 -29 -2z"/>
</g>
</svg>
